/* XPM */
static char *_7928316400d4d848190bb993fcb495ftYbvvkEiwBofIDRZ[] = {
/* columns rows colors chars-per-pixel */
"64 64 138 2 ",
"   c None",
".  c #0F2984",
"X  c #0F2C8E",
"o  c #112C85",
"O  c #102D8D",
"+  c #0F2C91",
"@  c #0F2F98",
"#  c #112E93",
"$  c #113095",
"%  c #11319A",
"&  c #1233A3",
"*  c #1436AA",
"=  c #1438AF",
"-  c #1639B2",
";  c #1A3DB6",
":  c #1C40B7",
">  c #1D41B9",
",  c #2346BD",
"<  c #2448BF",
"1  c #175DD6",
"2  c #175ED9",
"3  c #264AC1",
"4  c #2A4DC4",
"5  c #2D50C7",
"6  c #2E52C9",
"7  c #3154C7",
"8  c #3255CC",
"9  c #3559CE",
"0  c #375AD1",
"q  c #3A5DD3",
"w  c #1B60D5",
"e  c #1761DC",
"r  c #1962DC",
"t  c #2562C4",
"y  c #2A62C7",
"u  c #2361C8",
"i  c #2A63CC",
"p  c #2A6BDC",
"a  c #3F62D7",
"s  c #1763E1",
"d  c #1964E2",
"f  c #1A67E9",
"g  c #1B69ED",
"h  c #1C6CF5",
"j  c #1D6EF9",
"k  c #296BE0",
"l  c #296FEA",
"z  c #2C74EE",
"x  c #2C73ED",
"c  c #206FF7",
"v  c #2271F7",
"b  c #2373F7",
"n  c #2A75F5",
"m  c #2B76F5",
"M  c #2C78F7",
"N  c #2D78F7",
"B  c #2D79F7",
"V  c #2070F9",
"C  c #2171F9",
"Z  c #2271F9",
"A  c #2473F9",
"S  c #2573F9",
"D  c #2574F9",
"F  c #2775F8",
"G  c #2674F9",
"H  c #2775F9",
"J  c #2473F9",
"K  c #2974F8",
"L  c #2875F9",
"P  c #2976F9",
"I  c #2A76F8",
"U  c #2A77F8",
"Y  c #2976FA",
"T  c #2A77FA",
"R  c #2B77FA",
"E  c #2A76FA",
"W  c #2E79F8",
"Q  c #2C78FA",
"!  c #2D79FA",
"~  c #2E7AFA",
"^  c #2F7AFA",
"/  c #2E79F9",
"(  c #307BF8",
")  c #307BFA",
"_  c #317BFA",
"`  c #317CF9",
"'  c #317DF9",
"]  c #337DF8",
"[  c #337CF9",
"{  c #337DF9",
"}  c #317CFA",
"|  c #327CFA",
" . c #337DFA",
".. c #347DF8",
"X. c #347DF9",
"o. c #347EF9",
"O. c #357EF9",
"+. c #367EF8",
"@. c #377FF9",
"#. c #347EFA",
"$. c #357EFA",
"%. c #357FFA",
"&. c #367FFA",
"*. c #327CFA",
"=. c #4063D8",
"-. c #4164D9",
";. c #4264DA",
":. c #4265DA",
">. c #4366DB",
",. c #4366DC",
"<. c #4466DC",
"1. c #4467DC",
"2. c #4567DC",
"3. c #4668DD",
"4. c #4669DE",
"5. c #4769DE",
"6. c #496BE0",
"7. c #4A6CE1",
"8. c #4A6DE1",
"9. c #4B6EE2",
"0. c #4C6FE3",
"q. c #4F71E5",
"w. c #4F71E6",
"e. c #3580F9",
"r. c #3780FB",
"t. c #3780FB",
"y. c #3A81F9",
"u. c #3B82F9",
"i. c #3880FA",
"p. c #3880FB",
"a. c #3881FB",
"s. c #3981FB",
"d. c #3A82FB",
"f. c #3B83FB",
"g. c #3C82F9",
"h. c #3E85FB",
"j. c #3F85FB",
"k. c #3981FB",
/* pixels */
"                                                                                                                                ",
"                                                                                                                                ",
"                                                                                                                                ",
"                                                                                                                                ",
"                                                                                                                                ",
"                      ..' ' ....a.a.a.a.y.r.r.r.%.a.a.%.%.a.a.%.a.%.a.a.a.%.a.p.&.%.p.p.p.y.r.....| '                           ",
"                p.h.p.p.p.p.y.......| ' ' a.r.' %.%.| %.%.%.| %.%.| | %.%.| | %.%.%.%.%.r.p.p.j.p.p.a.| !                       ",
"              y.j.f.a...) Y C j h h j j j j j j j j j j j j j j j j j j j j j j j V C D U ! ' a.p.p.%.| ! Y                     ",
"            r.j.p.r.! j g d e e r d s d r s d s r d r r d r e s s s e d r r d d r d s s d g h U ......) ! Y G                   ",
"            u.p...Y d                                                                               Y Y G V h h                 ",
"          r.p.p.! d                                                                                     f f f f                 ",
"          y.p...j                                                                                         s r r e               ",
"        ) p.p.)                                                                                           w r r e               ",
"        ' p.p.Y                                                                                           y r 1 r               ",
"        ' &.a.h                                                                                             r w r               ",
"        ' a.%.h                                                                                             d r r               ",
"        r.r.' h                                                                                             h d f               ",
"        r.r.( h                                                                                             h f g               ",
"        p.%.) g                                                                                             b f h               ",
"        a...'                                                                                               Y h V               ",
"        a.%.|                                                                                               Y C D               ",
"        %.%.|                                                                                               N G R               ",
"        %.%.|                                                                                               ! Y !               ",
"        &.%.|                                                                                               ) R )               ",
"        &.%. .                                                                                              N Y !               ",
"        &.%. .      0 6.8.0.8.:.q 9 8 6 6                   4 3 3 , ; >                                     ( Y )               ",
"        p.%.|       0 7.q.q.q.>.q 8 8 9 9 8           8 0 8 8 4 3 ; * ;               8 8 4                 ! ! !               ",
"        &.%.|       9 2.8.8.:.q 9 8 8 8 9 0         8 0 0 8 6 ; * & @ =               0 0 4                 N Y !               ",
"        p.%.|       9 :.5.5.q       4 6 8 9       5 8 8 8 5 , & &     &               9 9                   ) ! )               ",
"        &.%.|       9 :.1.:.9       , 4 4 8     3 5 5 5 4 ,                           9 8                   N Y !               ",
"        &.%. .      9 1.1.=.9 5 3 ; = = , 4     , 3 3 3 4                   4 3 4 4 4 5 4 ; % @ %           ! U !               ",
"        p.%. .      8 a =.a 9 8 3 & % % %       & * * * &                   4 6 6 6 5 > ; & # # #           ! U )               ",
"        &.%.|       7 q 0 9 8 4 & $ $ # # o     % $ % $ $                   > , 3 3 - & % # O # #           ! U !               ",
"        &.%.|       5 8 9 8 4     O # # $ %     # # # # O                           # O O #                 N U )               ",
"        p.%.|       4 8 6 4 ,       o X # #     X X O O X                           + O O                   ! Y !               ",
"        &.%.|       4 4 4 >         o o O #     O O O O O O                         + # #                   x n !               ",
"        p.%.)       < 3 : * # # X . . . . O       . O O O O + X o o O +             # # #                   p l m               ",
"        &.%.%.      , , - * % # # O . . . .         . O O # # # O O O #                                     y p x               ",
"        p.%.'       > = & % % # # O o . .             o X # # # O O O +                                     i k z               ",
"        p...)                                                                                               p x (               ",
"        p.%.)                                                                                               m m (               ",
"        p.%.) j                                                                                             W R )               ",
"        &.%.| j                                                                                             ( R )               ",
"        p.%...C                                                                                             ) ) )               ",
"        p.p.%.D                                                                                             ) ) )               ",
"        p.p.r.Y                                                                                             ( ' !               ",
"        p.p.y.!                                                                                             ..' !               ",
"        y.y.y.]                                                                                             ..! Y               ",
"        ..p.p...                                                                                            ..Y C               ",
"        ' p.p.r.                                                                                            ..C h               ",
"        ! ..%...                                                                                            ) g d               ",
"          | | ..!                                                                                         ) L r e               ",
"          ! ! ) )                                                                                       N ) h r e               ",
"          n R ! ! n h                                                                                 ! ) h e w                 ",
"            G D D C h s u u                                                                       R ( n g e r 2                 ",
"              V C j h d s w r d g h h j G Y ! ) ' ) ) ) ) ) ) ) | | ^ | ! | | ! | | | | %.....) R G g f e w 1                   ",
"                g g f f r w r d f h j G G Y ) )  ...)  .)  . .) | | ) ' ) %.)  .%.) %.) ) ) ! Y C f d e r r                     ",
"                    s s r 2 w w r r r e d d f h h h h j h h h j h j j h h h h h h h h h h h f f d d d e                         ",
"                                                                                                                                ",
"                                                                                                                                ",
"                                                                                                                                ",
"                                                                                                                                ",
"                                                                                                                                ",
"                                                                                                                                "
};
