/* XPM */
static char *_a8ba15500fe44ffea5af02ff6226d72GRJ7b5J1yfqwoS5B[] = {
/* columns rows colors chars-per-pixel */
"32 32 162 2 ",
"   c None",
".  c #0F2C8A",
"X  c #0F2B8E",
"o  c #102C8C",
"O  c #102D8D",
"+  c #102D8F",
"@  c #0F2D90",
"#  c #0F2D91",
"$  c #0F2C93",
"%  c #112E92",
"&  c #112F94",
"*  c #102F99",
"=  c #102F9A",
"-  c #113197",
";  c #113199",
":  c #123098",
">  c #12319A",
",  c #10319D",
"<  c #11319D",
"1  c #12329D",
"2  c #1031A0",
"3  c #1032A0",
"4  c #1132A1",
"5  c #1032A3",
"6  c #1133A3",
"7  c #1334A2",
"8  c #1133A4",
"9  c #1133A5",
"0  c #1334A4",
"q  c #1134A6",
"w  c #1234A7",
"e  c #1233A9",
"r  c #1134A8",
"t  c #1335A8",
"y  c #1236AD",
"u  c #1437AD",
"i  c #1538A8",
"p  c #1539B3",
"a  c #1639B2",
"s  c #163AB3",
"d  c #183BB5",
"f  c #183CB5",
"g  c #1A3EB6",
"h  c #1E41BB",
"j  c #1E42BA",
"k  c #2246BA",
"l  c #2246BD",
"z  c #2346BD",
"x  c #2246BE",
"c  c #2549BF",
"v  c #1B5ED4",
"b  c #2448C0",
"n  c #2549C0",
"m  c #264AC1",
"M  c #274AC2",
"N  c #284BC2",
"B  c #294CC3",
"V  c #2A4DC5",
"C  c #2A4EC5",
"Z  c #2F52C5",
"A  c #2C50C7",
"S  c #2E51C7",
"D  c #2E52C8",
"F  c #2F53C9",
"G  c #3153C8",
"H  c #3052CA",
"J  c #3053CA",
"K  c #3155CA",
"L  c #3255CC",
"P  c #3256CC",
"I  c #3457CE",
"U  c #3558CE",
"Y  c #395CD2",
"T  c #1A61DD",
"R  c #1A63DF",
"E  c #2061D4",
"W  c #2062D9",
"Q  c #2364D8",
"!  c #2366DE",
"~  c #2668DB",
"^  c #3D60D5",
"/  c #1B61E0",
"(  c #1A64E0",
")  c #1964E3",
"_  c #1D65E3",
"`  c #1964E5",
"'  c #1A65E4",
"]  c #1964E6",
"[  c #1864E7",
"{  c #1866E6",
"}  c #1A66E6",
"|  c #1966E8",
" . c #1B67E8",
".. c #1966EA",
"X. c #1B67EA",
"o. c #1A67EF",
"O. c #1B68EB",
"+. c #1B69ED",
"@. c #1968EF",
"#. c #1A68EE",
"$. c #1B69EF",
"%. c #1A69F0",
"&. c #1A69F1",
"*. c #1969F2",
"=. c #1C6AF1",
"-. c #1C6BF3",
";. c #1F6DF3",
":. c #1A6AF4",
">. c #1A6CF6",
",. c #1C6CF4",
"<. c #1C6CF6",
"1. c #1D6CF7",
"2. c #1C6DF7",
"3. c #1D6EF7",
"4. c #1D6EF9",
"5. c #1F6FF9",
"6. c #276FEB",
"7. c #216DEF",
"8. c #206FF7",
"9. c #206FF8",
"0. c #2671F3",
"q. c #2070F7",
"w. c #2171F7",
"e. c #2270F7",
"r. c #2373F7",
"t. c #2471F7",
"y. c #2472F7",
"u. c #2573F7",
"i. c #2673F7",
"p. c #2A76F7",
"a. c #2C78F7",
"s. c #2070F9",
"d. c #2271F9",
"f. c #2372F9",
"g. c #2472F9",
"h. c #2573F9",
"j. c #2673F8",
"k. c #2773F8",
"l. c #2774F8",
"z. c #2775F8",
"x. c #2674F9",
"c. c #2775F9",
"v. c #2875F8",
"b. c #2875F9",
"n. c #2876F9",
"m. c #2976F9",
"M. c #2A76F8",
"N. c #2A77F8",
"B. c #2B76F9",
"V. c #2976FA",
"C. c #2A77FA",
"Z. c #2D77F8",
"A. c #2B78FA",
"S. c #2C78F8",
"D. c #2D79F8",
"F. c #2E79F8",
"G. c #2C78FA",
"H. c #2D79FA",
"J. c #2E7AFA",
"K. c #2F7AFA",
"L. c #307BFA",
"P. c #337DFA",
/* pixels */
"                                                                ",
"            B.z.z.C.C.B.z.z.z.B.B.B.B.B.B.K.P.K.B.B.z.          ",
"        p.P.K.A.B.z.j.j.j.j.j.j.j.j.j.j.z.B.K.Z.B.K.A.z.w.      ",
"        K.K.                                          i.z.      ",
"      z.A.                                              d.9.    ",
"      z.A.                                              %.:.    ",
"      B.z.                                              `  .    ",
"      B.j.                                              (  .    ",
"      B.i.                                              T `     ",
"      z.w.                                              )  .    ",
"      j.d.                                              %.4.    ",
"      d.j.  H Y ^ Y L Z       m N c z       s s         %.4.    ",
"      f.j.  F Y K K L I     h B B m z       e y         %.4.    ",
"      f.j.  A U F   Z H   g 0 d         s 6 6 8 r 8     %.4.    ",
"      f.j.  B L K F m k   * &           r 6 , 6 8 8     %.4.    ",
"      j.j.  m B     6 6   @ O @             * ,         2.d.    ",
"      d.j.  z z h i > >   @ o X                         ;.0.    ",
"      j.z.  s u r > > -     . % % % &                   7.6.    ",
"      K.B.                                              ! ~     ",
"      B.B.                                              E Q     ",
"      z.z.                                              v W     ",
"      d.i.                                              ( _     ",
"      d.w.                                              [ ]     ",
"      :.4.                                               . .    ",
"      %.>.                                              ` `     ",
"        ,.%.                                           .`       ",
"        #.=.=.$. .` R ) ` #.#.o.o.o.%.4.w.w.w.w.9.4.<.O.|       ",
"                                                                ",
"                                                                ",
"                                                                ",
"                                                                ",
"                                                                "
};
