/* XPM */
static char *_8b2e04c85344c96c03c44d2b32f32a1XcGUvrpFBleVGzOI[] = {
/* columns rows colors chars-per-pixel */
"16 16 31 1 ",
"  c None",
". c #1033A4",
"X c #1133A5",
"o c #1034A6",
"O c #1133A8",
"+ c #1134A9",
"@ c #1236AD",
"# c #1337B0",
"$ c #183BB4",
"% c #1D40B9",
"& c #1D41B9",
"* c #1E41BA",
"= c #1D42BA",
"- c #1E42BA",
"; c #2144BC",
": c #1B5BD5",
"> c #1969F1",
", c #1A69F0",
"< c #1A69F1",
"1 c #1A68F2",
"2 c #1A69F2",
"3 c #1A6AF3",
"4 c #1A6AF5",
"5 c #1D6CF7",
"6 c #1F6EF7",
"7 c #1F6FF7",
"8 c #206FF7",
"9 c #2070F7",
"0 c #2372F7",
"q c #2471F7",
"w c #2371F8",
/* pixels */
"                ",
"   wq888543333  ",
"  0          3  ",
"  0             ",
"  0             ",
"  5             ",
"  5;== #O o     ",
"  4;===  ..     ",
"  3= $@+        ",
"  ,             ",
"  ,             ",
"  3             ",
"  3          :  ",
"                ",
"                ",
"                "
};
